<svg xmlns="http://www.w3.org/2000/svg" xmlns:xlink="http://www.w3.org/1999/xlink" width="500" zoomAndPan="magnify" viewBox="0 0 375 374.999991" height="500" preserveAspectRatio="xMidYMid meet" version="1.0"><defs><g/><clipPath id="id1"><path d="M 23.957031 28.933594 L 340.984375 28.933594 L 340.984375 345.960938 L 23.957031 345.960938 Z M 23.957031 28.933594 " clip-rule="nonzero"/></clipPath><clipPath id="id2"><path d="M 246.492188 129.15625 L 268.207031 129.15625 L 268.207031 150.867188 L 246.492188 150.867188 Z M 246.492188 129.15625 " clip-rule="nonzero"/></clipPath><clipPath id="id3"><path d="M 96.699219 206.042969 L 118.414062 206.042969 L 118.414062 227.757812 L 96.699219 227.757812 Z M 96.699219 206.042969 " clip-rule="nonzero"/></clipPath></defs><g clip-path="url(#id1)"><path fill="#161e21" d="M 182.472656 28.933594 C 94.894531 28.933594 23.957031 99.871094 23.957031 187.449219 C 23.957031 275.027344 94.894531 345.960938 182.472656 345.960938 C 270.050781 345.960938 340.984375 275.027344 340.984375 187.449219 C 340.984375 99.871094 270.050781 28.933594 182.472656 28.933594 Z M 182.472656 28.933594 " fill-opacity="1" fill-rule="nonzero"/></g><g fill="#f4f4f4" fill-opacity="1"><g transform="translate(8.886081, 260.76839)"><g><path d="M 16.785156 0 L 103.007812 0 C 175.410156 0 222.140625 -50.023438 221.8125 -119.460938 C 221.484375 -172.777344 185.941406 -230.367188 95.4375 -230.367188 L 16.785156 -230.367188 L 16.785156 -226.089844 C 26.65625 -223.128906 29.949219 -215.558594 29.949219 -188.574219 L 29.949219 -41.796875 C 29.949219 -14.808594 26.65625 -7.238281 16.785156 -4.277344 Z M 56.933594 -28.960938 L 56.933594 -225.433594 L 79.3125 -225.433594 C 152.703125 -225.433594 191.863281 -172.117188 191.863281 -106.296875 C 191.863281 -37.515625 159.941406 -4.9375 102.347656 -4.9375 L 78.324219 -4.9375 C 60.226562 -4.9375 56.933594 -13.492188 56.933594 -28.960938 Z M 56.933594 -28.960938 "/></g></g></g><g fill="#f4f4f4" fill-opacity="1"><g transform="translate(177.247742, 304.541697)"><g><path d="M 15.953125 0 L 79.757812 0 C 155.757812 0 182.03125 -36.90625 181.40625 -71.9375 C 181.09375 -102.589844 158.574219 -127.921875 107.59375 -130.425781 C 143.246094 -136.992188 157.011719 -156.382812 157.011719 -177.652344 C 157.011719 -202.988281 137.304688 -218.9375 89.140625 -218.9375 L 15.953125 -218.9375 L 15.953125 -214.871094 C 25.335938 -212.058594 28.460938 -204.863281 28.460938 -179.214844 L 28.460938 -39.722656 C 28.460938 -14.074219 25.335938 -6.882812 15.953125 -4.066406 Z M 54.109375 -31.902344 L 54.109375 -126.359375 L 86.011719 -126.359375 C 132.925781 -126.359375 152.945312 -100.085938 152.945312 -64.117188 C 152.945312 -29.398438 133.550781 -4.691406 82.570312 -4.691406 L 70.371094 -4.691406 C 56.925781 -4.691406 54.109375 -9.382812 54.109375 -31.902344 Z M 54.109375 -131.050781 L 54.109375 -214.246094 L 77.878906 -214.246094 C 110.09375 -214.246094 128.546875 -197.984375 128.546875 -172.023438 C 128.546875 -149.191406 114.160156 -131.050781 83.195312 -131.050781 Z M 54.109375 -131.050781 "/></g></g></g><g clip-path="url(#id2)"><path fill="#ffffff" d="M 257.5625 129.15625 C 251.675781 129.15625 246.910156 134.011719 246.910156 140.011719 C 246.910156 146.011719 251.675781 150.867188 257.5625 150.867188 C 263.449219 150.867188 268.214844 146.011719 268.214844 140.011719 C 268.214844 134.011719 263.449219 129.15625 257.5625 129.15625 Z M 236.257812 132.773438 C 232.332031 132.773438 229.15625 136.011719 229.15625 140.011719 C 229.15625 144.011719 232.332031 147.25 236.257812 147.25 C 240.179688 147.25 243.359375 144.011719 243.359375 140.011719 C 243.359375 136.011719 240.179688 132.773438 236.257812 132.773438 Z M 236.257812 143.628906 C 234.296875 143.628906 232.707031 142.011719 232.707031 140.011719 C 232.707031 138.011719 234.296875 136.394531 236.257812 136.394531 C 238.21875 136.394531 239.808594 138.011719 239.808594 140.011719 C 239.808594 142.011719 238.21875 143.628906 236.257812 143.628906 Z M 236.257812 143.628906 " fill-opacity="1" fill-rule="nonzero"/></g><g clip-path="url(#id3)"><path fill="#ffffff" d="M 107.769531 206.042969 C 101.882812 206.042969 97.117188 210.902344 97.117188 216.902344 C 97.117188 222.898438 101.882812 227.757812 107.769531 227.757812 C 113.652344 227.757812 118.421875 222.898438 118.421875 216.902344 C 118.421875 210.902344 113.652344 206.042969 107.769531 206.042969 Z M 86.464844 209.664062 C 82.539062 209.664062 79.363281 212.902344 79.363281 216.902344 C 79.363281 220.898438 82.539062 224.136719 86.464844 224.136719 C 90.386719 224.136719 93.566406 220.898438 93.566406 216.902344 C 93.566406 212.902344 90.386719 209.664062 86.464844 209.664062 Z M 86.464844 220.519531 C 84.5 220.519531 82.914062 218.898438 82.914062 216.902344 C 82.914062 214.902344 84.5 213.28125 86.464844 213.28125 C 88.425781 213.28125 90.015625 214.902344 90.015625 216.902344 C 90.015625 218.898438 88.425781 220.519531 86.464844 220.519531 Z M 86.464844 220.519531 " fill-opacity="1" fill-rule="nonzero"/></g><g fill="#f4f4f4" fill-opacity="1"><g transform="translate(69.406578, 286.555094)"><g><path d="M 2.4375 2.558594 L 5.128906 -0.0078125 L 8.894531 3.941406 L 10.738281 2.183594 L 6.972656 -1.765625 L 7.570312 -2.335938 L 11.589844 1.878906 L 13.609375 -0.046875 L 7.53125 -6.421875 L 0.378906 0.398438 Z M 2.4375 2.558594 "/></g></g></g><g fill="#f4f4f4" fill-opacity="1"><g transform="translate(83.579784, 300.510543)"><g><path d="M 9.246094 2.75 C 10.359375 2.878906 11.449219 2.4375 12.25 1.441406 L 12.257812 1.433594 C 13.507812 -0.125 13.179688 -2.09375 11.429688 -3.496094 L 6.613281 -7.363281 L 0.425781 0.34375 L 2.753906 2.210938 L 4.671875 -0.171875 L 6.609375 1.382812 L 6.089844 4.890625 L 8.695312 6.980469 Z M 9.40625 -1.558594 C 9.9375 -1.132812 10.101562 -0.75 9.714844 -0.265625 L 9.707031 -0.257812 C 9.332031 0.210938 8.90625 0.132812 8.386719 -0.285156 L 6.179688 -2.054688 L 7.203125 -3.328125 Z M 9.40625 -1.558594 "/></g></g></g><g fill="#f4f4f4" fill-opacity="1"><g transform="translate(100.639958, 313.352829)"><g><path d="M 5.605469 3.496094 C 8.953125 5.46875 11.96875 4.867188 13.53125 2.210938 L 13.539062 2.203125 C 15.089844 -0.433594 14.148438 -3.351562 10.796875 -5.320312 C 7.449219 -7.292969 4.441406 -6.703125 2.890625 -4.066406 L 2.882812 -4.058594 C 1.320312 -1.402344 2.253906 1.527344 5.605469 3.496094 Z M 7.019531 1.09375 C 5.339844 0.105469 4.765625 -1.25 5.496094 -2.492188 L 5.503906 -2.5 C 6.261719 -3.792969 7.609375 -3.960938 9.382812 -2.917969 C 11.050781 -1.933594 11.628906 -0.5625 10.898438 0.675781 L 10.894531 0.6875 C 10.164062 1.925781 8.699219 2.082031 7.019531 1.09375 Z M 7.019531 1.09375 "/></g></g></g><g fill="#f4f4f4" fill-opacity="1"><g transform="translate(121.208993, 324.542343)"><g><path d="M 9.054688 0.265625 L 7.992188 -7.425781 L 4.21875 -8.953125 L 0.507812 0.207031 L 3.273438 1.328125 L 5.933594 -5.234375 L 7.011719 2.84375 L 10.636719 4.3125 L 14.351562 -4.847656 L 11.582031 -5.96875 Z M 9.054688 0.265625 "/></g></g></g><g fill="#f4f4f4" fill-opacity="1"><g transform="translate(142.063045, 332.187308)"><g><path d="M 6.796875 1.699219 L 8.519531 -5.179688 L 12.183594 -4.261719 L 12.859375 -6.96875 L 2.632812 -9.527344 L 1.957031 -6.820312 L 5.621094 -5.902344 L 3.902344 0.976562 Z M 6.796875 1.699219 "/></g></g></g><g fill="#f4f4f4" fill-opacity="1"><g transform="translate(162.78044, 336.63363)"><g><path d="M 9.300781 1.050781 L 9.613281 -1.722656 L 3.824219 -2.375 L 3.929688 -3.296875 L 9.351562 -2.683594 L 9.636719 -5.214844 L 4.214844 -5.828125 L 4.308594 -6.652344 L 10.09375 -5.996094 L 10.40625 -8.769531 L 1.652344 -9.757812 L 0.542969 0.0625 Z M 9.300781 1.050781 "/></g></g></g><g fill="#f4f4f4" fill-opacity="1"><g transform="translate(182.73767, 338.263827)"><g><path d="M 8.417969 -3.355469 L 4.382812 -9.988281 L 0.3125 -9.890625 L 0.546875 -0.0117188 L 3.53125 -0.0820312 L 3.367188 -7.160156 L 7.566406 -0.179688 L 11.476562 -0.273438 L 11.242188 -10.152344 L 8.257812 -10.082031 Z M 8.417969 -3.355469 "/></g></g></g><g fill="#f4f4f4" fill-opacity="1"><g transform="translate(204.924542, 337.005332)"><g><path d="M 5.636719 -0.949219 C 9.578125 -1.609375 11.082031 -3.457031 10.511719 -6.859375 L 10.507812 -6.882812 C 9.957031 -10.148438 8.261719 -11.410156 3.996094 -10.691406 L -1.097656 -9.835938 L 0.539062 -0.0898438 Z M 2.308594 -7.578125 L 4.566406 -7.960938 C 6.441406 -8.273438 7.261719 -7.820312 7.503906 -6.375 L 7.507812 -6.351562 C 7.773438 -4.777344 7.121094 -4.027344 5.28125 -3.71875 L 3.023438 -3.335938 Z M 2.308594 -7.578125 "/></g></g></g><g fill="#f4f4f4" fill-opacity="1"><g transform="translate(78.498985, 95.990026)"><g><path d="M 2.8125 -3.449219 C 4.246094 -5.3125 4.496094 -7.238281 2.699219 -8.621094 L -0.742188 -11.265625 L -2.113281 -9.480469 L 0.945312 -7.128906 C 2.039062 -6.289062 1.703125 -5.457031 1.144531 -4.730469 C 0.582031 -4 -0.132812 -3.460938 -1.226562 -4.300781 L -4.285156 -6.652344 L -5.65625 -4.867188 L -2.21875 -2.226562 C -0.417969 -0.84375 1.378906 -1.582031 2.8125 -3.449219 Z M 2.8125 -3.449219 "/></g></g></g><g fill="#f4f4f4" fill-opacity="1"><g transform="translate(88.594703, 83.634785)"><g><path d="M 2.101562 -2.03125 L 1.90625 -5.246094 L 5.105469 -4.9375 L 7.136719 -6.90625 L 1.847656 -7.335938 L 1.625 -11.941406 L -0.40625 -9.972656 L -0.234375 -7.457031 L -2.75 -7.707031 L -4.785156 -5.738281 L -0.183594 -5.371094 L 0.0664062 -0.0625 Z M 2.101562 -2.03125 "/></g></g></g><g fill="#f4f4f4" fill-opacity="1"><g transform="translate(101.27939, 72.179226)"><g><path d="M 2.683594 -0.246094 L 1.523438 -10.320312 L -0.453125 -8.882812 L 0.699219 1.195312 Z M 2.683594 -0.246094 "/></g></g></g><g fill="#f4f4f4" fill-opacity="1"><g transform="translate(113.196995, 64.035954)"><g><path d="M 3.976562 -1.996094 C 6.046875 -3.109375 7.066406 -4.765625 5.988281 -6.761719 L 3.933594 -10.582031 L 1.953125 -9.515625 L 3.78125 -6.117188 C 4.433594 -4.902344 3.789062 -4.28125 2.980469 -3.847656 C 2.167969 -3.410156 1.296875 -3.210938 0.644531 -4.425781 L -1.1875 -7.824219 L -3.167969 -6.757812 L -1.113281 -2.9375 C -0.0351562 -0.941406 1.90625 -0.878906 3.976562 -1.996094 Z M 3.976562 -1.996094 "/></g></g></g><g fill="#f4f4f4" fill-opacity="1"><g transform="translate(127.556169, 56.965541)"><g><path d="M 2.476562 -0.980469 L -0.269531 -7.910156 L -2.363281 -7.078125 L 0.382812 -0.152344 Z M 2.476562 -0.980469 "/></g></g></g></svg>